# xmcd
#
# Track frame offsets:
#	150
#	15155
#	34257
#	48469
#	60394
#	78310
#	93969
#	109672
#	124315
#	142553
#	156053
#	170848
#	186870
#	202279
#	219124
#	233322
#	251922
#	269143
#	286754
#
# Disc length: 4022 seconds
#
# Revision: 0
# Processed by: cddbd v1.5PL3 Copyright (c) Steve Scherf et al.
# Submitted via: dBpowerAMP V4.0
#
DISCID=020fb413
DTITLE=Earl Thomsa Conley - Essentials
DYEAR=1900
DGENRE=
TTITLE0=Fire And Smoke
TTITLE1=Between Right And Wrong
TTITLE2=Heavenly Bodies
TTITLE3=I Have Loved You Girl (But Not Like This Before)
TTITLE4=Angel In Disguise
TTITLE5=Don't Make It Easy For Me
TTITLE6=Your Love's On The Line
TTITLE7=Holding Her and Loving You
TTITLE8=I Can't Win For Losin' You
TTITLE9=Chance Of Lovin' You
TTITLE10=Honor Bound
TTITLE11=Love Don't Care (Whose Heart It Breaks)
TTITLE12=Nobody Falls Like a Fool
TTITLE13=Once In A Blue Moon
TTITLE14=Right From The Start
TTITLE15=What She Is (is A Woman In Love)
TTITLE16=Love Out Loud
TTITLE17=What I'd Say
TTITLE18=Brotherly Love (With Keith Whitley)
EXTD=
EXTT0=
EXTT1=
EXTT2=
EXTT3=
EXTT4=
EXTT5=
EXTT6=
EXTT7=
EXTT8=
EXTT9=
EXTT10=
EXTT11=
EXTT12=
EXTT13=
EXTT14=
EXTT15=
EXTT16=
EXTT17=
EXTT18=
PLAYORDER=
